<svg xmlns="http://www.w3.org/2000/svg" viewBox="0 0 183.74 30.62"><defs><style>.cls-1{fill:#a1a204;}</style></defs><title>logo</title><g id="Layer_2" data-name="Layer 2"><g id="Layer_1-2" data-name="Layer 1"><path d="M5.68,22.91a10.87,10.87,0,0,1-4.16-4.06A11.3,11.3,0,0,1,0,13,11.3,11.3,0,0,1,1.52,7.2,10.88,10.88,0,0,1,5.68,3.14a12,12,0,0,1,5.94-1.47,12.44,12.44,0,0,1,4.48.78,9.24,9.24,0,0,1,3.49,2.32l-1,1.06a9.38,9.38,0,0,0-6.88-2.66A10.37,10.37,0,0,0,6.56,4.45,9.37,9.37,0,0,0,2.94,8a9.84,9.84,0,0,0-1.31,5,9.84,9.84,0,0,0,1.31,5A9.36,9.36,0,0,0,6.56,21.6a10.36,10.36,0,0,0,5.12,1.28,9.38,9.38,0,0,0,6.88-2.69l1,1.06a9.37,9.37,0,0,1-3.5,2.34,12.24,12.24,0,0,1-4.46.8A12,12,0,0,1,5.68,22.91Z"/><path d="M25.23,23.26a7.83,7.83,0,0,1-3-3,8.76,8.76,0,0,1-1.09-4.37,8.76,8.76,0,0,1,1.09-4.37,7.84,7.84,0,0,1,3-3,8.93,8.93,0,0,1,8.54,0,7.84,7.84,0,0,1,3,3,8.76,8.76,0,0,1,1.09,4.37,8.76,8.76,0,0,1-1.09,4.37,7.84,7.84,0,0,1-3,3,8.93,8.93,0,0,1-8.54,0ZM32.94,22a6.43,6.43,0,0,0,2.4-2.5,7.44,7.44,0,0,0,.88-3.65,7.44,7.44,0,0,0-.88-3.65,6.44,6.44,0,0,0-2.4-2.5,7.05,7.05,0,0,0-6.88,0,6.43,6.43,0,0,0-2.4,2.5,7.44,7.44,0,0,0-.88,3.65,7.44,7.44,0,0,0,.88,3.65,6.43,6.43,0,0,0,2.4,2.5,7.05,7.05,0,0,0,6.88,0Z"/><path d="M44.27,23.26a7.83,7.83,0,0,1-3-3,8.76,8.76,0,0,1-1.09-4.37,8.76,8.76,0,0,1,1.09-4.37,7.84,7.84,0,0,1,3-3,8.93,8.93,0,0,1,8.54,0,7.84,7.84,0,0,1,3,3,8.76,8.76,0,0,1,1.09,4.37,8.76,8.76,0,0,1-1.09,4.37,7.84,7.84,0,0,1-3,3,8.93,8.93,0,0,1-8.54,0ZM52,22a6.43,6.43,0,0,0,2.4-2.5,7.44,7.44,0,0,0,.88-3.65,7.44,7.44,0,0,0-.88-3.65A6.44,6.44,0,0,0,52,9.73a7.05,7.05,0,0,0-6.88,0,6.43,6.43,0,0,0-2.4,2.5,7.44,7.44,0,0,0-.88,3.65,7.44,7.44,0,0,0,.88,3.65A6.43,6.43,0,0,0,45.1,22,7.05,7.05,0,0,0,52,22Z"/><path d="M67,15.3l-4.35,4v5h-1.6V.48h1.6v16.8L73.34,7.52h2l-7.2,6.75,7.9,10h-2Z"/><path class="cls-1" d="M79,1.82h9.44a13.65,13.65,0,0,1,6.3,1.41,10.35,10.35,0,0,1,4.27,4A11.17,11.17,0,0,1,100.58,13a11.17,11.17,0,0,1-1.52,5.84,10.35,10.35,0,0,1-4.27,4,13.65,13.65,0,0,1-6.3,1.41H79Zm9.25,19.62a10.37,10.37,0,0,0,4.78-1.06,7.64,7.64,0,0,0,3.18-3A8.52,8.52,0,0,0,97.38,13a8.52,8.52,0,0,0-1.12-4.4,7.64,7.64,0,0,0-3.18-3,10.36,10.36,0,0,0-4.78-1.06h-6V21.44Z"/><path class="cls-1" d="M119.49,16.77H105.73a5.33,5.33,0,0,0,2,3.6,6.42,6.42,0,0,0,4.18,1.36,6.29,6.29,0,0,0,4.9-2l1.7,2a7.42,7.42,0,0,1-2.86,2,10.8,10.8,0,0,1-8.59-.4,7.87,7.87,0,0,1-3.22-3.09,8.85,8.85,0,0,1-1.14-4.48,9,9,0,0,1,1.1-4.45,7.91,7.91,0,0,1,3-3.09,8.66,8.66,0,0,1,4.37-1.1,8.49,8.49,0,0,1,4.34,1.1,7.76,7.76,0,0,1,3,3.09,9.41,9.41,0,0,1,1.07,4.54A8.86,8.86,0,0,1,119.49,16.77Zm-12-5.73a5.42,5.42,0,0,0-1.74,3.52h10.88a5.46,5.46,0,0,0-1.74-3.5,5.73,5.73,0,0,0-7.39,0Z"/><path class="cls-1" d="M123.87,23.86a8.77,8.77,0,0,1-3-1.42L122.14,20a9.18,9.18,0,0,0,2.72,1.28,11.2,11.2,0,0,0,3.23.48q4,0,4-2.3a1.49,1.49,0,0,0-.54-1.22,3.45,3.45,0,0,0-1.36-.66q-.82-.21-2.32-.46a22.68,22.68,0,0,1-3.34-.74A5.15,5.15,0,0,1,122.34,15a3.92,3.92,0,0,1-.93-2.78,4.35,4.35,0,0,1,1.92-3.7,8.6,8.6,0,0,1,5.15-1.39,14.22,14.22,0,0,1,3.39.42,9.14,9.14,0,0,1,2.78,1.12l-1.31,2.43a8.82,8.82,0,0,0-4.9-1.34,5.66,5.66,0,0,0-3,.64,1.93,1.93,0,0,0-1,1.7,1.62,1.62,0,0,0,.58,1.31,3.63,3.63,0,0,0,1.42.7q.85.22,2.38.51a25.93,25.93,0,0,1,3.31.75,5,5,0,0,1,2.16,1.36,3.79,3.79,0,0,1,.9,2.69,4.24,4.24,0,0,1-2,3.66,9.3,9.3,0,0,1-5.36,1.36A14.22,14.22,0,0,1,123.87,23.86Z"/><path class="cls-1" d="M138.29,3.42A1.89,1.89,0,0,1,137.7,2a1.94,1.94,0,0,1,.59-1.42A2,2,0,0,1,139.78,0a2.08,2.08,0,0,1,1.49.56A1.84,1.84,0,0,1,141.85,2a2,2,0,0,1-.59,1.46,2,2,0,0,1-1.49.59A2,2,0,0,1,138.29,3.42Zm0,3.84h3.07v17h-3.07Z"/><path class="cls-1" d="M162.59,7.26V21.92q0,4.45-2.21,6.58t-6.59,2.13a15.78,15.78,0,0,1-4.58-.66,9.06,9.06,0,0,1-3.52-1.87l1.47-2.37a8.69,8.69,0,0,0,2.93,1.62,11.13,11.13,0,0,0,3.6.59,6,6,0,0,0,4.4-1.41,5.8,5.8,0,0,0,1.42-4.29V20.9a6.79,6.79,0,0,1-2.67,2,8.9,8.9,0,0,1-3.44.66,9.27,9.27,0,0,1-4.4-1,7.74,7.74,0,0,1-3.09-2.91,8.16,8.16,0,0,1-1.12-4.27A8.16,8.16,0,0,1,145.92,11,7.63,7.63,0,0,1,149,8.13a9.4,9.4,0,0,1,4.4-1,9,9,0,0,1,3.57.7,6.63,6.63,0,0,1,2.7,2.08V7.26Zm-5.84,12.86a5.2,5.2,0,0,0,2.08-2,5.5,5.5,0,0,0,.75-2.86,5.19,5.19,0,0,0-1.63-4,6.58,6.58,0,0,0-8.42,0,5.19,5.19,0,0,0-1.63,4,5.49,5.49,0,0,0,.75,2.86,5.2,5.2,0,0,0,2.08,2,6.35,6.35,0,0,0,3,.7A6.28,6.28,0,0,0,156.75,20.13Z"/><path class="cls-1" d="M181.84,9a7.36,7.36,0,0,1,1.9,5.49v9.76h-3.07V14.82a5.21,5.21,0,0,0-1.18-3.71,4.45,4.45,0,0,0-3.39-1.25,5.29,5.29,0,0,0-3.94,1.46,5.69,5.69,0,0,0-1.44,4.18v8.74h-3.07v-17h2.94V9.82a6,6,0,0,1,2.51-2,8.79,8.79,0,0,1,3.6-.7A7,7,0,0,1,181.84,9Z"/><path d="M5.68,22.91a10.87,10.87,0,0,1-4.16-4.06A11.3,11.3,0,0,1,0,13,11.3,11.3,0,0,1,1.52,7.2,10.88,10.88,0,0,1,5.68,3.14a12,12,0,0,1,5.94-1.47,12.44,12.44,0,0,1,4.48.78,9.24,9.24,0,0,1,3.49,2.32l-1,1.06a9.38,9.38,0,0,0-6.88-2.66A10.37,10.37,0,0,0,6.56,4.45,9.37,9.37,0,0,0,2.94,8a9.84,9.84,0,0,0-1.31,5,9.84,9.84,0,0,0,1.31,5A9.36,9.36,0,0,0,6.56,21.6a10.36,10.36,0,0,0,5.12,1.28,9.38,9.38,0,0,0,6.88-2.69l1,1.06a9.37,9.37,0,0,1-3.5,2.34,12.24,12.24,0,0,1-4.46.8A12,12,0,0,1,5.68,22.91Z"/><path d="M25.23,23.26a7.83,7.83,0,0,1-3-3,8.76,8.76,0,0,1-1.09-4.37,8.76,8.76,0,0,1,1.09-4.37,7.84,7.84,0,0,1,3-3,8.93,8.93,0,0,1,8.54,0,7.84,7.84,0,0,1,3,3,8.76,8.76,0,0,1,1.09,4.37,8.76,8.76,0,0,1-1.09,4.37,7.84,7.84,0,0,1-3,3,8.93,8.93,0,0,1-8.54,0ZM32.94,22a6.43,6.43,0,0,0,2.4-2.5,7.44,7.44,0,0,0,.88-3.65,7.44,7.44,0,0,0-.88-3.65,6.44,6.44,0,0,0-2.4-2.5,7.05,7.05,0,0,0-6.88,0,6.43,6.43,0,0,0-2.4,2.5,7.44,7.44,0,0,0-.88,3.65,7.44,7.44,0,0,0,.88,3.65,6.43,6.43,0,0,0,2.4,2.5,7.05,7.05,0,0,0,6.88,0Z"/><path d="M44.27,23.26a7.83,7.83,0,0,1-3-3,8.76,8.76,0,0,1-1.09-4.37,8.76,8.76,0,0,1,1.09-4.37,7.84,7.84,0,0,1,3-3,8.93,8.93,0,0,1,8.54,0,7.84,7.84,0,0,1,3,3,8.76,8.76,0,0,1,1.09,4.37,8.76,8.76,0,0,1-1.09,4.37,7.84,7.84,0,0,1-3,3,8.93,8.93,0,0,1-8.54,0ZM52,22a6.43,6.43,0,0,0,2.4-2.5,7.44,7.44,0,0,0,.88-3.65,7.44,7.44,0,0,0-.88-3.65A6.44,6.44,0,0,0,52,9.73a7.05,7.05,0,0,0-6.88,0,6.43,6.43,0,0,0-2.4,2.5,7.44,7.44,0,0,0-.88,3.65,7.44,7.44,0,0,0,.88,3.65A6.43,6.43,0,0,0,45.1,22,7.05,7.05,0,0,0,52,22Z"/><path d="M67,15.3l-4.35,4v5h-1.6V.48h1.6v16.8L73.34,7.52h2l-7.2,6.75,7.9,10h-2Z"/><path class="cls-1" d="M79,1.82h9.44a13.65,13.65,0,0,1,6.3,1.41,10.35,10.35,0,0,1,4.27,4A11.17,11.17,0,0,1,100.58,13a11.17,11.17,0,0,1-1.52,5.84,10.35,10.35,0,0,1-4.27,4,13.65,13.65,0,0,1-6.3,1.41H79Zm9.25,19.62a10.37,10.37,0,0,0,4.78-1.06,7.64,7.64,0,0,0,3.18-3A8.52,8.52,0,0,0,97.38,13a8.52,8.52,0,0,0-1.12-4.4,7.64,7.64,0,0,0-3.18-3,10.36,10.36,0,0,0-4.78-1.06h-6V21.44Z"/><path class="cls-1" d="M119.49,16.77H105.73a5.33,5.33,0,0,0,2,3.6,6.42,6.42,0,0,0,4.18,1.36,6.29,6.29,0,0,0,4.9-2l1.7,2a7.42,7.42,0,0,1-2.86,2,10.8,10.8,0,0,1-8.59-.4,7.87,7.87,0,0,1-3.22-3.09,8.85,8.85,0,0,1-1.14-4.48,9,9,0,0,1,1.1-4.45,7.91,7.91,0,0,1,3-3.09,8.66,8.66,0,0,1,4.37-1.1,8.49,8.49,0,0,1,4.34,1.1,7.76,7.76,0,0,1,3,3.09,9.41,9.41,0,0,1,1.07,4.54A8.86,8.86,0,0,1,119.49,16.77Zm-12-5.73a5.42,5.42,0,0,0-1.74,3.52h10.88a5.46,5.46,0,0,0-1.74-3.5,5.73,5.73,0,0,0-7.39,0Z"/><path class="cls-1" d="M123.87,23.86a8.77,8.77,0,0,1-3-1.42L122.14,20a9.18,9.18,0,0,0,2.72,1.28,11.2,11.2,0,0,0,3.23.48q4,0,4-2.3a1.49,1.49,0,0,0-.54-1.22,3.45,3.45,0,0,0-1.36-.66q-.82-.21-2.32-.46a22.68,22.68,0,0,1-3.34-.74A5.15,5.15,0,0,1,122.34,15a3.92,3.92,0,0,1-.93-2.78,4.35,4.35,0,0,1,1.92-3.7,8.6,8.6,0,0,1,5.15-1.39,14.22,14.22,0,0,1,3.39.42,9.14,9.14,0,0,1,2.78,1.12l-1.31,2.43a8.82,8.82,0,0,0-4.9-1.34,5.66,5.66,0,0,0-3,.64,1.93,1.93,0,0,0-1,1.7,1.62,1.62,0,0,0,.58,1.31,3.63,3.63,0,0,0,1.42.7q.85.22,2.38.51a25.93,25.93,0,0,1,3.31.75,5,5,0,0,1,2.16,1.36,3.79,3.79,0,0,1,.9,2.69,4.24,4.24,0,0,1-2,3.66,9.3,9.3,0,0,1-5.36,1.36A14.22,14.22,0,0,1,123.87,23.86Z"/><path class="cls-1" d="M138.29,3.42A1.89,1.89,0,0,1,137.7,2a1.94,1.94,0,0,1,.59-1.42A2,2,0,0,1,139.78,0a2.08,2.08,0,0,1,1.49.56A1.84,1.84,0,0,1,141.85,2a2,2,0,0,1-.59,1.46,2,2,0,0,1-1.49.59A2,2,0,0,1,138.29,3.42Zm0,3.84h3.07v17h-3.07Z"/><path class="cls-1" d="M162.59,7.26V21.92q0,4.45-2.21,6.58t-6.59,2.13a15.78,15.78,0,0,1-4.58-.66,9.06,9.06,0,0,1-3.52-1.87l1.47-2.37a8.69,8.69,0,0,0,2.93,1.62,11.13,11.13,0,0,0,3.6.59,6,6,0,0,0,4.4-1.41,5.8,5.8,0,0,0,1.42-4.29V20.9a6.79,6.79,0,0,1-2.67,2,8.9,8.9,0,0,1-3.44.66,9.27,9.27,0,0,1-4.4-1,7.74,7.74,0,0,1-3.09-2.91,8.16,8.16,0,0,1-1.12-4.27A8.16,8.16,0,0,1,145.92,11,7.63,7.63,0,0,1,149,8.13a9.4,9.4,0,0,1,4.4-1,9,9,0,0,1,3.57.7,6.63,6.63,0,0,1,2.7,2.08V7.26Zm-5.84,12.86a5.2,5.2,0,0,0,2.08-2,5.5,5.5,0,0,0,.75-2.86,5.19,5.19,0,0,0-1.63-4,6.58,6.58,0,0,0-8.42,0,5.19,5.19,0,0,0-1.63,4,5.49,5.49,0,0,0,.75,2.86,5.2,5.2,0,0,0,2.08,2,6.35,6.35,0,0,0,3,.7A6.28,6.28,0,0,0,156.75,20.13Z"/><path class="cls-1" d="M181.84,9a7.36,7.36,0,0,1,1.9,5.49v9.76h-3.07V14.82a5.21,5.21,0,0,0-1.18-3.71,4.45,4.45,0,0,0-3.39-1.25,5.29,5.29,0,0,0-3.94,1.46,5.69,5.69,0,0,0-1.44,4.18v8.74h-3.07v-17h2.94V9.82a6,6,0,0,1,2.51-2,8.79,8.79,0,0,1,3.6-.7A7,7,0,0,1,181.84,9Z"/></g></g></svg>